<?xml version="1.0" standalone="no"?>
<!DOCTYPE svg PUBLIC "-//W3C//DTD SVG 20010904//EN"
 "http://www.w3.org/TR/2001/REC-SVG-20010904/DTD/svg10.dtd">
<svg version="1.0" xmlns="http://www.w3.org/2000/svg"
 width="1024.000000pt" height="1024.000000pt" viewBox="0 0 1024.000000 1024.000000"
 preserveAspectRatio="xMidYMid meet">

<g transform="translate(0.000000,1024.000000) scale(0.100000,-0.100000)"
fill="#000000" stroke="none">
<path d="M3203 7793 c192 -2 317 -7 317 -13 0 -5 -8 -7 -17 -4 -15 5 -16 4 -3
-5 8 -6 25 -11 37 -11 12 0 25 -5 29 -11 4 -8 -1 -9 -15 -4 -14 4 -31 1 -46
-9 -14 -9 -26 -14 -26 -11 -1 3 -2 11 -3 18 -1 6 -11 12 -23 12 -11 0 -25 3
-29 8 -4 4 1 7 11 7 10 0 16 2 13 5 -3 4 -17 3 -30 0 -20 -5 -24 -11 -20 -32
4 -22 2 -25 -12 -20 -10 4 -43 7 -74 7 -31 0 -52 4 -45 8 6 4 -6 7 -28 7 -21
0 -39 -1 -39 -2 0 -1 15 -7 33 -12 l32 -10 -35 2 c-26 1 -34 -2 -32 -12 3 -12
1 -12 -14 0 -12 9 -15 9 -10 2 5 -9 -1 -13 -22 -13 -24 0 -31 -6 -40 -32 -10
-32 -11 -31 -9 17 2 44 0 50 -17 48 -11 -1 -26 6 -33 15 -7 9 -13 13 -13 7 0
-5 -4 -4 -9 4 -5 8 -16 16 -25 17 -12 2 -13 -3 -6 -22 8 -19 5 -27 -17 -44
-14 -11 -29 -17 -32 -14 -3 4 0 9 7 11 6 3 12 9 12 15 0 7 -4 7 -12 0 -7 -5
-25 -9 -41 -7 -15 2 -25 -1 -22 -5 8 -13 -9 -20 -25 -9 -11 6 -12 9 -2 9 7 0
10 5 7 10 -3 6 0 10 7 11 15 1 -21 17 -39 18 -7 1 -13 -9 -13 -22 0 -12 -7
-32 -15 -43 -8 -12 -11 -24 -8 -28 3 -3 -1 -6 -10 -6 -23 0 -21 -14 6 -46 20
-23 26 -25 43 -15 18 11 18 12 -2 6 -14 -3 -26 1 -35 12 -13 16 -12 17 4 4 9
-8 19 -12 20 -10 1 2 8 11 15 20 7 9 10 24 6 33 -9 23 -24 20 -19 -4 4 -22
-10 -36 -21 -19 -3 6 0 15 7 20 12 7 11 9 -1 9 -13 1 -12 2 1 10 9 5 26 8 37
5 12 -2 28 3 36 11 9 8 17 10 21 5 3 -6 12 -8 20 -5 8 4 17 0 20 -7 3 -8 21
-15 42 -15 35 -1 35 -1 13 11 -13 7 -31 11 -39 8 -13 -4 -13 -3 -2 5 7 5 22 7
32 5 11 -3 19 0 19 7 0 7 -7 10 -17 6 -11 -4 -8 2 7 14 14 11 19 20 13 20 -7
0 -13 8 -13 18 1 16 1 16 11 -1 6 -9 14 -15 20 -12 5 4 9 3 9 -2 0 -4 10 -19
21 -33 l20 -25 -6 25 c-4 18 -3 21 4 10 5 -9 6 -30 1 -50 -6 -28 -8 -30 -9
-10 -1 21 -6 25 -31 26 -25 1 -28 -1 -19 -12 6 -8 8 -15 3 -16 -5 0 -13 -2
-19 -3 -5 -2 -14 -3 -19 -4 -5 0 -3 -8 4 -17 11 -12 11 -18 -2 -31 -14 -14
-16 -12 -13 21 1 26 -2 36 -10 32 -7 -2 -17 0 -23 6 -6 6 -12 6 -17 -1 -3 -6
1 -14 10 -17 13 -6 14 -8 3 -15 -10 -7 -10 -9 1 -9 11 0 10 -4 -5 -16 -16 -13
-16 -15 -2 -10 10 3 20 0 24 -5 3 -6 15 -8 26 -6 11 3 17 3 13 -1 -4 -4 -27
-7 -53 -8 -25 0 -41 1 -34 4 6 2 8 10 5 18 -3 8 1 14 8 14 9 1 8 4 -4 11 -9 6
-15 14 -12 20 4 5 -2 9 -12 9 -11 0 -24 5 -31 12 -9 9 -12 9 -12 0 0 -7 7 -15
17 -19 13 -5 12 -8 -8 -15 -22 -9 -22 -11 -7 -22 15 -11 15 -13 0 -23 -18 -13
-15 -13 58 -19 14 -1 339 -2 722 -3 l697 -1 -2 -121 -2 -120 42 5 c40 5 99 31
135 59 11 9 15 22 12 38 -4 21 -3 21 4 4 8 -18 10 -17 27 14 57 111 22 246
-81 317 l-56 39 -767 0 c-421 0 -623 -1 -448 -2z m872 -8 c-19 -8 -545 -10
-545 -3 0 4 125 7 278 7 152 0 273 -2 267 -4z m55 0 c0 -7 -30 -13 -34 -7 -3
4 4 9 15 9 10 1 19 0 19 -2z m78 -2 c-10 -2 -28 -2 -40 0 -13 2 -5 4 17 4 22
1 32 -1 23 -4z m102 3 c0 -8 -51 -13 -56 -5 -3 5 9 9 25 9 17 0 31 -2 31 -4z
m72 -4 c-6 -2 -10 -8 -6 -13 3 -5 0 -9 -5 -9 -6 0 -11 5 -11 11 0 5 -4 8 -8 5
-4 -2 -14 -1 -20 3 -7 4 3 8 25 8 21 0 32 -2 25 -5z m59 -20 c-7 -2 -18 1 -23
6 -8 8 -4 9 13 5 13 -4 18 -8 10 -11z m-814 -10 c0 -12 -10 -18 -26 -19 -25
-2 -25 -2 -3 7 12 5 22 14 22 20 0 5 2 10 4 10 3 0 4 -8 3 -18z m286 11 c-7
-2 -19 -2 -25 0 -7 3 -2 5 12 5 14 0 19 -2 13 -5z m-248 -13 c-6 -9 17 -15 40
-10 6 1 7 -2 2 -6 -10 -10 -57 -12 -51 -2 3 4 -1 8 -8 8 -9 0 -9 3 2 10 19 12
23 12 15 0z m611 -11 c0 -10 -4 -15 -8 -13 -4 3 -16 0 -26 -5 -14 -7 -19 -6
-19 4 0 8 7 11 15 7 11 -4 14 -1 10 9 -4 9 0 15 11 15 9 0 17 -8 17 -17z
m-816 1 c-10 -6 -11 -10 -2 -10 7 0 12 -12 11 -27 -1 -21 -2 -23 -6 -8 -3 11
-9 25 -14 31 -10 12 -2 24 15 24 6 0 4 -5 -4 -10z m390 5 c0 -7 -30 -13 -34
-7 -3 4 4 9 15 9 10 1 19 0 19 -2z m63 -2 c-7 -2 -19 -2 -25 0 -7 3 -2 5 12 5
14 0 19 -2 13 -5z m532 -3 c5 -8 11 -8 20 0 9 7 16 6 25 -5 15 -18 7 -31 -12
-19 -29 18 -49 15 -46 -7 2 -15 -3 -23 -16 -25 -14 -2 -16 0 -7 9 6 6 11 21
11 34 0 24 14 31 25 13z m-698 -6 c-3 -3 -12 -4 -19 -1 -8 3 -5 6 6 6 11 1 17
-2 13 -5z m-457 -34 c0 -13 -7 -20 -19 -20 -25 0 -38 20 -20 31 23 15 39 10
39 -11z m17 -12 c-3 -7 -5 -2 -5 12 0 14 2 19 5 13 2 -7 2 -19 0 -25z m118 18
c16 4 17 3 5 -5 -12 -9 -13 -11 -1 -11 8 0 12 -2 10 -5 -3 -2 -25 2 -49 9 -25
7 -52 11 -60 9 -12 -4 -13 -3 -1 5 8 6 26 6 45 1 17 -5 40 -6 51 -3z m1106
-13 c11 -15 11 -16 -1 -6 -9 9 -19 9 -34 2 -20 -10 -20 -10 -2 5 24 19 21 20
37 -1z m-1295 -14 c4 -8 -1 -9 -17 -4 -18 5 -20 4 -9 -4 8 -5 11 -13 8 -17 -4
-3 -19 3 -34 15 l-27 21 36 0 c20 0 39 -5 43 -11z m279 2 c3 -5 0 -13 -6 -17
-7 -4 -9 -3 -5 4 3 5 0 13 -6 15 -9 4 -10 6 -1 6 6 1 14 -3 18 -8z m1026 -11
c6 0 8 -4 5 -9 -4 -5 0 -12 6 -15 19 -8 -34 1 -55 9 -15 6 -16 10 -5 16 7 5
19 7 26 4 8 -3 18 -5 23 -5z m-1260 -15 c0 -5 -9 -11 -21 -11 -16 -1 -16 -1 2
3 22 5 22 6 3 14 -17 7 -17 8 -2 6 10 -1 18 -6 18 -12z m1146 9 c-3 -3 -12 -4
-19 -1 -8 3 -5 6 6 6 11 1 17 -2 13 -5z m-1098 -46 c-2 -28 -2 -29 -6 -8 -3
14 -10 28 -17 32 -7 5 -5 8 7 8 13 0 17 -8 16 -32z m56 23 c3 -5 1 -12 -5 -16
-6 -4 -7 -11 -4 -17 4 -7 2 -8 -5 -4 -9 6 -9 11 -1 21 8 10 7 14 -2 18 -9 4
-9 6 -1 6 6 1 14 -3 18 -8z m-261 -21 c5 -5 -9 -5 -30 0 -21 5 -41 7 -45 4 -4
-2 -10 0 -13 5 -8 12 75 3 88 -9z m103 -4 c-6 -8 -15 -12 -19 -9 -4 2 -2 10 5
17 6 8 15 12 19 9 4 -2 2 -10 -5 -17z m37 -1 c3 -8 1 -15 -4 -15 -6 0 -10 7
-10 15 0 8 2 15 4 15 2 0 6 -7 10 -15z m46 5 c0 -5 -4 -10 -10 -10 -5 0 -10 5
-10 10 0 6 5 10 10 10 6 0 10 -4 10 -10z m-153 -23 c3 -4 -10 -7 -30 -7 -20 0
-39 5 -42 10 -7 12 60 8 72 -3z m-38 -22 c2 -3 -13 -4 -33 -3 -20 1 -39 4 -41
8 -5 7 66 2 74 -5z m1405 -49 c-7 -17 -44 -23 -44 -6 0 5 7 7 15 4 9 -4 18 1
21 10 4 9 8 15 10 13 3 -2 2 -12 -2 -21z m45 -33 c2 -1 -5 -1 -16 0 -11 0 -20
7 -20 14 0 10 4 10 16 1 9 -7 18 -13 20 -15z m-66 -8 c-3 -9 -8 -14 -10 -11
-3 3 -2 9 2 15 9 16 15 13 8 -4z m41 -12 c-5 -5 -12 -12 -16 -18 -4 -6 -8 -2
-8 8 0 9 7 17 17 17 9 0 12 -3 7 -7z"/>
<path d="M3256 7702 c-3 -5 1 -9 9 -9 8 0 15 4 15 9 0 4 -4 8 -9 8 -6 0 -12
-4 -15 -8z"/>
<path d="M4500 7666 c0 -2 7 -7 16 -10 8 -3 12 -2 9 4 -6 10 -25 14 -25 6z"/>
<path d="M2845 7781 c-3 -5 0 -13 6 -17 7 -4 9 -3 5 4 -3 6 2 13 11 15 16 4
16 5 1 6 -9 0 -19 -3 -23 -8z"/>
<path d="M3098 7773 c7 -3 16 -2 19 1 4 3 -2 6 -13 5 -11 0 -14 -3 -6 -6z"/>
<path d="M2790 7725 c-11 -20 -11 -28 -1 -38 10 -9 11 -8 5 6 -4 11 0 25 11
37 10 11 14 20 8 20 -5 0 -16 -11 -23 -25z"/>
<path d="M3026 7722 c-2 -4 6 -12 20 -19 21 -10 23 -9 13 8 -10 20 -24 25 -33
11z"/>
<path d="M2888 7663 c6 -2 18 -2 25 0 6 3 1 5 -13 5 -14 0 -19 -2 -12 -5z"/>
<path d="M5069 7327 c-44 -17 -26 -3 -328 -242 -139 -110 -333 -263 -431 -340
-98 -77 -281 -221 -406 -320 -126 -99 -280 -220 -344 -269 -63 -49 -180 -141
-260 -204 -285 -227 -327 -260 -504 -398 -282 -219 -296 -234 -296 -329 0
-100 74 -175 179 -183 72 -5 104 10 227 107 49 39 92 71 97 71 4 0 7 -594 7
-1320 0 -1281 1 -1322 19 -1358 24 -46 76 -97 116 -113 23 -9 208 -11 760 -10
1031 4 1705 10 1715 16 5 3 11 1 14 -3 7 -11 334 -12 364 -1 15 6 22 5 22 -4
0 -6 9 1 19 17 11 17 17 34 14 39 -3 6 -1 7 5 3 9 -5 9 -13 2 -26 -13 -24 0
-33 50 -34 27 -1 36 2 33 11 -3 7 -9 13 -15 13 -5 0 -6 -5 -2 -12 4 -7 3 -8
-5 -4 -12 8 -6 26 9 26 5 0 16 -8 25 -17 19 -18 155 -28 155 -10 0 6 5 6 13
-1 16 -13 130 -12 139 2 5 7 8 6 8 -4 0 -13 1 -13 10 0 5 8 10 10 10 3 0 -15
565 -18 620 -3 20 5 58 28 83 50 83 73 77 -34 77 1437 0 717 2 1303 5 1303 3
0 46 -34 95 -75 114 -94 141 -108 212 -108 80 0 137 35 172 105 14 28 26 66
26 82 -1 40 -23 102 -47 128 -10 11 -119 102 -243 201 -124 100 -267 214 -317
255 l-93 75 0 508 0 508 43 12 c55 15 110 73 125 130 19 75 -7 145 -72 193
-26 20 -47 21 -349 29 -352 9 -472 2 -515 -30 -47 -35 -66 -70 -70 -130 -7
-109 65 -192 166 -193 l42 0 0 -275 c0 -151 -3 -275 -7 -275 -5 0 -57 41 -118
91 -60 50 -164 132 -230 183 -66 52 -277 220 -470 375 -192 155 -368 290 -390
301 -55 27 -122 33 -166 17z m356 -689 c272 -216 467 -369 545 -428 47 -35
110 -84 140 -110 30 -25 100 -81 155 -123 241 -185 544 -422 588 -459 l47 -40
0 -378 0 -378 -466 -1 c-257 -1 -478 -4 -493 -8 -46 -11 -103 -64 -130 -123
l-26 -55 1 -757 0 -758 -238 0 c-131 0 -238 3 -238 6 0 9 237 537 271 606 35
69 36 96 7 133 -41 52 -61 55 -396 55 l-309 0 -6 69 c-7 80 -30 131 -84 183
-72 70 -52 68 -774 68 l-649 0 1 678 0 677 53 41 c28 23 120 93 202 156 82 63
226 175 319 249 94 74 235 186 315 249 80 63 285 225 455 360 171 136 334 265
364 287 l54 41 91 -77 c50 -42 141 -115 201 -163z m1465 -243 c0 -201 -3 -365
-7 -365 -9 1 -40 24 -162 118 l-82 64 3 191 c1 106 4 229 6 275 l4 82 119 0
119 0 0 -365z m10 -2688 l0 -683 -395 -2 -395 -3 0 686 0 685 395 0 395 0 0
-683z m-2410 63 l0 -140 -560 0 -560 0 0 140 0 140 560 0 560 0 0 -140z m776
-376 c-3 -9 -40 -96 -82 -195 l-76 -180 -114 2 -114 1 0 189 0 189 183 3 c100
1 188 3 196 5 8 1 11 -4 7 -14z m-766 -61 c0 -32 -3 -115 -7 -185 l-6 -128
-559 0 -558 0 0 185 0 185 565 0 565 0 0 -57z m2368 -593 l32 0 0 -75 0 -75
-132 0 c-73 0 -362 0 -643 0 -280 -1 -1015 -1 -1632 0 l-1123 0 0 80 0 79
1733 -4 c952 -3 1747 -5 1765 -5z m-1114 -202 c-3 -4 -11 -5 -19 -1 -21 7 -19
12 4 10 11 0 18 -5 15 -9z m443 -43 c0 -8 -4 -12 -9 -9 -5 3 -6 10 -3 15 9 13
12 11 12 -6z m-27 -10 c0 -8 -2 -15 -4 -15 -2 0 -6 7 -10 15 -3 8 -1 15 4 15
6 0 10 -7 10 -15z m23 -40 c-3 -9 -8 -14 -10 -11 -3 3 -2 9 2 15 9 16 15 13 8
-4z"/>
<path d="M5145 6072 c-9 -9 -5 -236 4 -251 6 -9 18 -11 41 -6 22 5 30 4 26 -3
-3 -6 -1 -14 5 -18 6 -3 15 -1 19 6 10 16 77 -4 77 -23 0 -16 -89 -16 -95 1
-7 23 -32 13 -32 -13 0 -39 -30 -32 -32 8 -1 17 -5 -35 -8 -118 l-5 -150 -327
-3 -326 -2 -7 -39 c-4 -22 -3 -61 1 -86 l7 -48 156 4 c86 1 234 2 330 1 l174
-2 -7 -291 -7 -292 78 5 c199 14 409 150 499 323 16 29 33 51 38 48 5 -3 6 -2
3 3 -3 5 4 41 15 79 27 94 29 292 5 384 -60 224 -250 411 -472 465 -69 16
-152 26 -160 18z m205 -302 c0 -5 7 -10 15 -10 13 0 13 -3 3 -20 -25 -40 -59
-20 -42 24 7 18 24 22 24 6z m-130 -40 c0 -5 -5 -10 -11 -10 -5 0 -7 5 -4 10
3 6 8 10 11 10 2 0 4 -4 4 -10z m229 -35 c22 -24 41 -50 40 -57 0 -10 -2 -10
-6 0 -2 6 -9 10 -13 7 -5 -3 -12 0 -16 6 -4 8 -3 9 4 5 17 -10 15 9 -2 23 -11
9 -15 9 -19 -1 -3 -7 -6 -2 -6 11 -1 20 -3 21 -16 11 -9 -8 -15 -8 -15 -2 0 6
3 12 8 15 4 2 2 2 -5 1 -14 -4 -25 10 -16 20 12 11 20 6 62 -39z m-162 9 c0
-7 -6 -15 -13 -18 -15 -6 -28 9 -20 22 8 13 33 10 33 -4z m25 -34 c-6 -43 -12
-37 -10 10 1 23 4 36 8 30 4 -6 5 -24 2 -40z m78 32 c0 -4 -9 -13 -20 -20 -19
-12 -20 -11 -8 8 13 20 28 27 28 12z m-168 -27 c11 2 15 -2 11 -12 -3 -8 -9
-11 -12 -6 -3 4 -12 8 -20 8 -8 0 -17 7 -19 15 -4 12 -2 13 9 4 8 -6 22 -10
31 -9z m133 -23 c-3 -3 -11 0 -18 7 -9 10 -8 11 6 5 10 -3 15 -9 12 -12z m152
-48 c-3 -3 -12 -4 -19 -1 -8 3 -5 6 6 6 11 1 17 -2 13 -5z m-314 -91 c-7 -2
-19 -2 -25 0 -7 3 -2 5 12 5 14 0 19 -2 13 -5z m275 0 c-43 -2 -113 -2 -155 0
-43 1 -8 3 77 3 85 0 120 -2 78 -3z m37 -324 c-4 -5 -12 -9 -18 -8 -9 0 -8 2
1 6 6 2 9 10 6 15 -4 7 -2 8 5 4 6 -4 9 -12 6 -17z"/>
<path d="M5247 5793 c-13 -12 -7 -22 12 -20 11 0 17 6 14 14 -6 14 -16 17 -26
6z"/>
<path d="M6289 5470 c-102 -54 -148 -190 -100 -296 38 -83 146 -145 228 -129
106 20 174 92 188 201 11 83 -45 188 -119 224 -55 26 -147 26 -197 0z"/>
<path d="M2855 7156 c-96 -44 -153 -140 -142 -240 6 -64 24 -101 69 -144 61
-61 81 -63 596 -57 497 5 503 6 536 58 19 30 29 77 17 77 -6 0 -8 7 -5 15 10
25 -48 73 -97 80 -24 3 -169 5 -322 3 -199 -2 -277 0 -277 8 0 6 8 22 18 35
10 13 31 47 46 74 16 28 37 65 48 83 l20 32 -229 0 c-218 0 -230 -1 -278 -24z
m185 6 c0 -5 -13 -8 -30 -6 -16 2 -30 -1 -30 -6 0 -14 -29 -12 -44 3 -11 11
-3 13 45 15 33 1 59 -2 59 -6z m70 1 c-8 -3 -19 -12 -23 -19 -4 -8 -17 -14
-27 -14 -10 0 -24 -8 -29 -17 -9 -15 -12 -16 -20 -4 -10 16 -4 41 10 41 13 0
11 -18 -3 -23 -10 -4 -10 -6 0 -6 7 -1 15 6 18 14 4 8 15 15 25 15 10 0 19 5
19 10 0 6 10 10 23 9 14 0 17 -2 7 -6z m57 1 c-3 -3 -12 -4 -19 -1 -8 3 -5 6
6 6 11 1 17 -2 13 -5z m-253 -13 c4 -5 -4 -7 -16 -3 -14 3 -19 1 -14 -6 5 -8
2 -10 -8 -6 -9 3 -13 10 -10 15 7 12 41 12 48 0z m376 -5 c0 -3 -4 -8 -10 -11
-5 -3 -10 -1 -10 4 0 6 5 11 10 11 6 0 10 -2 10 -4z m-415 -26 c3 -5 1 -10 -4
-10 -6 0 -11 5 -11 10 0 6 2 10 4 10 3 0 8 -4 11 -10z m422 -12 c-3 -8 -6 -5
-6 6 -1 11 2 17 5 13 3 -3 4 -12 1 -19z m-500 -11 c0 -8 -6 -14 -14 -14 -9 0
-10 4 -2 14 6 7 12 13 14 13 1 0 2 -6 2 -13z m155 -34 c-5 -28 -22 -30 -22 -4
0 11 -6 21 -12 24 -7 2 -1 4 13 3 21 -1 24 -5 21 -23z m121 15 c8 7 18 3 32
-11 11 -11 14 -17 8 -13 -7 4 -13 2 -13 -4 0 -6 -5 -8 -10 -5 -6 4 -7 11 -4
17 4 6 -1 8 -13 4 -13 -4 -25 0 -34 11 -13 16 -12 17 4 4 11 -9 21 -10 30 -3z
m-88 -46 c-2 -21 2 -41 8 -45 8 -6 7 -7 -3 -4 -11 2 -15 17 -15 49 0 26 3 44
7 42 4 -3 5 -21 3 -42z m274 15 c8 -10 7 -14 -4 -14 -8 0 -12 4 -9 8 2 4 -4
10 -13 12 -15 4 -15 5 -2 6 9 0 22 -5 28 -12z m-246 -22 c-3 -9 -8 -14 -10
-11 -3 3 -2 9 2 15 9 16 15 13 8 -4z m-183 -9 c-7 -7 -13 -7 -20 0 -6 6 -3 10
10 10 13 0 16 -4 10 -10z m350 -16 c0 -5 -5 -10 -11 -10 -5 0 -7 5 -4 10 3 6
8 10 11 10 2 0 4 -4 4 -10z m-330 -40 c0 -5 -5 -10 -11 -10 -5 0 -7 5 -4 10 3
6 8 10 11 10 2 0 4 -4 4 -10z m55 0 c8 -13 -5 -13 -25 0 -13 8 -13 10 2 10 9
0 20 -4 23 -10z m70 0 c-3 -5 -11 -10 -16 -10 -6 0 -7 5 -4 10 3 6 11 10 16
10 6 0 7 -4 4 -10z m-75 -20 c12 -7 10 -9 -8 -7 -12 0 -22 5 -22 9 0 11 12 10
30 -2z m110 -5 c0 -2 -6 -5 -13 -8 -8 -3 -14 1 -14 8 0 7 6 11 14 8 7 -3 13
-6 13 -8z m-30 -41 c0 -2 -9 0 -20 6 -11 6 -21 8 -21 5 -1 -3 -2 -9 -3 -14 0
-5 -4 -12 -8 -16 -9 -9 -5 16 5 33 6 9 13 9 28 2 10 -6 19 -13 19 -16z m617
20 c-3 -3 -12 -4 -19 -1 -8 3 -5 6 6 6 11 1 17 -2 13 -5z m313 -24 c0 -5 -2
-10 -4 -10 -3 0 -8 5 -11 10 -3 6 -1 10 4 10 6 0 11 -4 11 -10z m-1003 -22
c-3 -8 -6 -5 -6 6 -1 11 2 17 5 13 3 -3 4 -12 1 -19z m103 -14 c0 -2 -9 0 -20
6 -11 6 -20 13 -20 16 0 2 9 0 20 -6 11 -6 20 -13 20 -16z m735 -12 c-3 -3
-11 0 -18 7 -9 10 -8 11 6 5 10 -3 15 -9 12 -12z m-708 -44 c-3 -7 -5 -2 -5
12 0 14 2 19 5 13 2 -7 2 -19 0 -25z m-111 -7 c-10 -10 -16 -27 -14 -36 2 -10
-3 -19 -10 -21 -7 -1 -8 0 -3 2 5 3 7 13 4 24 -3 10 3 27 14 37 23 25 32 19 9
-6z m-44 -33 c-7 -7 -12 -8 -12 -2 0 14 12 26 19 19 2 -3 -1 -11 -7 -17z m308
-18 c0 -5 -5 -10 -11 -10 -5 0 -7 5 -4 10 3 6 8 10 11 10 2 0 4 -4 4 -10z
m455 0 c-3 -5 -12 -10 -18 -10 -7 0 -6 4 3 10 19 12 23 12 15 0z"/>
</g>
</svg>
